<svg xmlns="http://www.w3.org/2000/svg" width="1786.72" height="42.5" viewBox="0 0 1786.72 42.5">
  <defs>
    <style>
      .cls-1 {
        fill: #ffd200;
        fill-rule: evenodd;
      }
    </style>
  </defs>
  <path id="Rectangle_2_copy_10" data-name="Rectangle 2 copy 10" class="cls-1" d="M1589.51,71.495L1568.3,50.5l21.21-20.994,21.2,20.995Zm-243.9,0L1324.41,50.5l21.2-20.994L1366.82,50.5Zm202.92,0L1527.32,50.5l21.21-20.994,21.2,20.995Zm-39.99,0L1487.34,50.5l21.2-20.994L1529.75,50.5Zm-40.98,0L1446.36,50.5l21.2-20.994L1488.77,50.5Zm-40.98,0L1405.37,50.5l21.21-20.994,21.2,20.995Zm-39.98,0L1365.39,50.5l21.21-20.994L1407.8,50.5Zm444.91,0L1810.3,50.5l21.21-20.994,21.2,20.995Zm-40.98,0L1769.32,50.5l21.21-20.994,21.2,20.995Zm-39.99,0L1729.34,50.5l21.2-20.994L1771.75,50.5Zm-40.98,0L1688.36,50.5l21.2-20.994L1730.77,50.5Zm-38.98,0L1649.37,50.5l21.21-20.994,21.2,20.995Zm-41.98,0L1607.39,50.5l21.21-20.994L1649.8,50.5Zm-323.97,0L1283.43,50.5l21.2-20.994L1325.84,50.5Zm-243.89,0L1039.53,50.5l21.21-20.994,21.2,20.995Zm203.91,0L1243.44,50.5l21.21-20.994,21.2,20.995Zm-40.98,0L1202.46,50.5l21.21-20.994,21.2,20.995Zm-40.99,0L1161.48,50.5l21.2-20.994L1203.89,50.5Zm-39.98,0L1121.5,50.5l21.2-20.994L1163.91,50.5Zm-40.98,0L1080.51,50.5l21.21-20.994,21.2,20.995Zm-81.97,0L998.55,50.5l21.2-20.994L1040.96,50.5Zm-39.979,0L958.567,50.5l21.2-20.994L1000.98,50.5Zm-40.983,0L917.584,50.5l21.2-20.994L959.993,50.5Zm-202.912,0L714.672,50.5l21.2-20.994L757.08,50.5Zm161.93,0L876.6,50.5l21.2-20.994L919.01,50.5Zm-39.982,0L836.619,50.5l21.2-20.994,21.2,20.995Zm-40.983,0L795.637,50.5l21.2-20.994,21.2,20.995Zm-40.982,0L754.655,50.5l21.2-20.994,21.2,20.995Zm-80.966,0L673.689,50.5l21.2-20.994L716.1,50.5Zm-40.982,0L632.707,50.5l21.2-20.994,21.2,20.995Zm-39.983,0L592.724,50.5l21.2-20.994L635.133,50.5Zm-41.087,0L551.637,50.5l21.2-20.994,21.2,20.995Zm-40.982,0L510.655,50.5l21.2-20.994,21.2,20.995Zm-39.966,0L470.689,50.5l21.2-20.994L513.1,50.5Zm-40.982,0L429.707,50.5l21.2-20.994,21.2,20.995Zm-40.983,0L388.724,50.5l21.2-20.994,21.2,20.995Zm-40.017,0L348.707,50.5l21.2-20.994,21.2,20.995Zm-40.983,0L307.724,50.5l21.2-20.994,21.2,20.995Zm-39.1.5L268.651,51l21.175-20.994L311,51Zm-39.909,0L228.742,51l21.175-20.994L271.091,51Zm-40.925,0L187.817,51l21.175-20.994L230.166,51Zm-40.926,0L146.892,51l21.174-20.994L189.241,51Zm-39.961,0L106.931,51,128.1,30.006,149.279,51Zm-40.925,0L66.006,51,87.18,30.006,108.354,51Z" transform="translate(-66 -29.5)"/>
</svg>
